<svg width="169" height="183" viewBox="0 0 169 183" fill="none" xmlns="http://www.w3.org/2000/svg">
<g opacity="0.21">
<path d="M131.312 69.4247C130.617 68.4841 129.741 67.7265 128.749 67.207C127.757 66.6874 126.672 66.419 125.574 66.4211H31.4956L29.6007 54.5226C29.3987 53.2552 28.7996 52.1071 27.9087 51.28C27.0177 50.4529 25.892 49.9997 24.7291 50H4.94582C3.63411 50 2.37612 50.5767 1.4486 51.6032C0.521076 52.6297 0 54.022 0 55.4737C0 56.9254 0.521076 58.3176 1.4486 59.3442C2.37612 60.3707 3.63411 60.9474 4.94582 60.9474H20.5808L34.6949 149.477C34.897 150.745 35.4961 151.893 36.387 152.72C37.2779 153.547 38.4037 154 39.5666 154H118.7C120.011 154 121.269 153.423 122.197 152.397C123.124 151.37 123.646 149.978 123.646 148.526C123.646 147.075 123.124 145.682 122.197 144.656C121.269 143.629 120.011 143.053 118.7 143.053H43.7149L41.9715 132.105H116.672C118.387 132.103 120.049 131.445 121.376 130.242C122.703 129.04 123.614 127.366 123.955 125.506L132.857 76.2429C133.072 75.0507 133.044 73.8206 132.777 72.6415C132.51 71.4624 132.009 70.3637 131.312 69.4247Z" fill="#FF5C00"/>
<path d="M48 183C54.6274 183 60 178.299 60 172.5C60 166.701 54.6274 162 48 162C41.3726 162 36 166.701 36 172.5C36 178.299 41.3726 183 48 183Z" fill="#FF5C00"/>
<path d="M109 183C115.627 183 121 178.299 121 172.5C121 166.701 115.627 162 109 162C102.373 162 97 166.701 97 172.5C97 178.299 102.373 183 109 183Z" fill="#FF5C00"/>
</g>
</svg>
