<svg width="34" height="34" viewBox="0 0 34 34" fill="none" xmlns="http://www.w3.org/2000/svg">
<mask id="mask0_108_14015" style="mask-type:luminance" maskUnits="userSpaceOnUse" x="1" y="3" width="32" height="27">
<path d="M3.1921 11.5925L8.86797 5.43428C9.01014 5.28286 9.18205 5.16242 9.37292 5.08052C9.56379 4.99861 9.76952 4.957 9.97722 4.95828H24.0277C24.2354 4.957 24.4412 4.99861 24.632 5.08052C24.8229 5.16242 24.9948 5.28286 25.137 5.43428L30.8128 11.5925C31.0458 11.8401 31.1735 12.1685 31.1689 12.5085C31.1643 12.8484 31.0277 13.1732 30.7881 13.4144L17.5337 28.4395C17.4672 28.5149 17.3855 28.5753 17.2939 28.6166C17.2023 28.658 17.103 28.6793 17.0025 28.6793C16.902 28.6793 16.8026 28.658 16.711 28.6166C16.6194 28.5753 16.5377 28.5149 16.4712 28.4395L3.21689 13.4144C2.97724 13.1732 2.84068 12.8484 2.83606 12.5085C2.83143 12.1685 2.9591 11.8401 3.1921 11.5925Z" fill="white" stroke="white" stroke-width="2" stroke-linecap="round" stroke-linejoin="round"/>
<path d="M11.3359 14.1665L17.0026 20.5415L22.6693 14.1665" stroke="black" stroke-width="2" stroke-linecap="round" stroke-linejoin="round"/>
</mask>
<g mask="url(#mask0_108_14015)">
<path d="M0 0H34V34H0V0Z" fill="#FF5C00"/>
</g>
</svg>
