<svg width="24" height="24" viewBox="0 0 24 24" fill="none" xmlns="http://www.w3.org/2000/svg">
<path d="M23.2477 13.5098V7.1415C23.2468 7.05463 23.2138 6.97117 23.1551 6.90713C22.5664 5.50913 19.1363 4.62112 15.2385 4.305V2.508L16.6016 1.80488L15.2385 1.10175V0.925875C15.2391 0.879954 15.2215 0.835664 15.1895 0.802702C15.1575 0.76974 15.1138 0.75079 15.0679 0.75C15.022 0.750888 14.9784 0.769881 14.9465 0.802832C14.9146 0.835784 14.897 0.880017 14.8976 0.925875V4.27875C13.9902 4.21376 13.0808 4.17937 12.171 4.17563V2.508L13.5345 1.80488L12.171 1.10175V0.925875C12.1706 0.82875 12.0938 0.75 12.0004 0.75C11.907 0.75 11.8301 0.82875 11.8301 0.925875V4.17563C10.9189 4.17938 10.0012 4.21425 9.1035 4.27875V2.508L10.4666 1.80488L9.1035 1.10175V0.925875C9.104 0.879983 9.08635 0.83575 9.0544 0.802809C9.02244 0.769868 8.97876 0.750887 8.93287 0.75C8.83912 0.75 8.76225 0.82875 8.76225 0.925875V4.305C4.55137 4.64625 0.886875 5.65575 0.760125 7.25325C0.75825 7.26637 0.75225 7.27763 0.75225 7.29187V13.5101H0.75V18.8558H9.18525L8.13037 21.6683H7.77863L8.658 19.2071H6.37238L5.31787 21.6683H4.96613L6.021 19.2071H3.56063L2.50575 21.6683H2.15437L3.20888 19.2071H0.75V23.25H23.25V13.5098H23.2477ZM22.5525 7.23525C22.5341 7.32825 22.4921 7.365 22.473 7.37963C22.3365 7.488 22.1569 7.5915 21.954 7.69238C21.5179 7.053 20.3021 6.4905 18.5891 6.0825L19.0916 5.56388C21.1894 6.04012 22.4145 6.68475 22.5525 7.23525ZM7.56938 8.3085L7.24012 8.97787C6.44512 8.90896 5.65332 8.80713 4.86675 8.67263C7.71637 7.485 15.6611 7.5225 18.963 8.55863C18.2779 8.68388 17.523 8.79225 16.7126 8.88075L16.4314 8.3085H7.56938ZM16.3875 8.91413C15.0893 9.045 13.6646 9.12637 12.1706 9.14775V8.66025H16.263L16.3875 8.91413ZM11.8301 8.66025V9.15075C11.6801 9.15225 11.532 9.15525 11.3809 9.15525H11.3794C10.0174 9.15525 8.736 9.10162 7.5675 9.00675L7.73737 8.66062L11.8301 8.66025ZM17.2789 7.347C17.3026 7.35175 17.3265 7.356 17.3505 7.35975L18.2734 6.408C19.8592 6.77737 21.0289 7.28513 21.5659 7.86525C21.2306 7.99988 20.8429 8.12775 20.3978 8.2455C19.6087 7.88325 18.543 7.575 17.2789 7.347ZM12.1706 4.87875C14.8508 4.88888 17.0985 5.13975 18.8107 5.50313L18.3105 6.01875C16.6204 5.64487 14.4908 5.41762 12.1706 5.40637V4.87875ZM12.1706 6.91012V5.77125C14.358 5.78212 16.3721 5.99475 17.9932 6.34538L17.0599 7.308C17.1322 7.31813 17.2005 7.332 17.2695 7.34513C15.7432 7.07062 13.9335 6.91125 11.9929 6.91012C12.0524 6.90963 12.1116 6.90963 12.1706 6.91012ZM11.9546 6.91012C8.26912 6.91237 5.06288 7.48725 3.363 8.33663C2.96363 8.22488 2.6085 8.10413 2.31675 7.974C2.80463 7.34662 4.03087 6.79763 5.72325 6.40462L6.642 7.35187C6.73987 7.3365 6.83288 7.31512 6.93338 7.30087L6.00338 6.34125C7.62713 5.991 9.64237 5.78025 11.8301 5.77087V6.90975L11.9546 6.91012ZM11.8301 4.87875V5.40637C9.50963 5.41612 7.37887 5.64225 5.6865 6.015L5.19 5.50313C6.90225 5.13975 9.14963 4.88888 11.8301 4.87875ZM4.90875 5.56388L5.4075 6.07875C3.5925 6.5085 2.33475 7.113 1.96425 7.79737C1.75538 7.6785 1.59112 7.55288 1.47562 7.422C1.46625 7.41112 1.44037 7.38187 1.43963 7.29075C1.50638 6.72825 2.74013 6.05625 4.90875 5.56388ZM14.0209 16.9462V17.2733H13.3635V14.8125H10.6369V17.2736H9.93038V16.9084C9.93165 16.8196 9.8989 16.7338 9.83885 16.6684C9.77881 16.6031 9.69602 16.5632 9.6075 16.557C3.97013 16.2502 1.434 15.2257 1.434 14.5965V13.7362C3.44475 15.0289 8.412 15.4016 9.606 15.4736L9.6225 15.0577C5.68875 14.8204 2.6025 14.1184 1.434 13.2675V11.9786C3.44475 13.2713 8.412 13.644 9.606 13.716L9.6225 13.3001C5.68875 13.0627 2.6025 12.3608 1.434 11.5099V10.221C3.44475 11.5136 8.412 11.8864 9.606 11.9584L9.6225 11.5425C5.68875 11.3051 2.6025 10.6031 1.434 9.75225V8.28638C3.1845 9.43688 7.58437 9.85875 11.3794 9.85875H11.3805C15.6431 9.85838 20.6081 9.33075 22.566 8.15812V9.60525C21.4447 10.6718 18.5197 11.4004 14.3786 11.5845L14.3906 12C16.4936 11.907 20.7529 11.5391 22.566 10.11V11.3625C21.4447 12.429 18.5197 13.1576 14.3786 13.3417L14.3906 13.7576C16.4936 13.6646 20.7529 13.2968 22.566 11.8676V13.1201C21.4447 14.1866 18.5197 14.9152 14.3786 15.0994L14.3906 15.5153C16.4936 15.4222 20.7529 15.0544 22.566 13.6252V14.2354C22.566 15.4511 19.2634 16.3995 14.3486 16.5949C14.1652 16.602 14.0209 16.7576 14.0209 16.9462ZM23.2477 19.2071H20.7866L21.8415 21.6683H21.4901L20.4352 19.2071H17.9745L19.029 21.6683H18.6772L17.6224 19.2071H15.3375L16.2161 21.6683H15.8644L14.8095 18.8558H23.247V19.2071H23.2477Z" fill="#FF5C00"/>
<path d="M13.8907 12.3243C13.7876 11.9527 13.3968 11.6482 13.0214 11.6482H10.9766C10.6016 11.6482 10.2108 11.9527 10.1077 12.3243L9.80095 13.4332C9.78402 13.4956 9.77669 13.5602 9.7792 13.6248C9.84178 13.5566 9.91771 13.502 10.0023 13.4644C10.0869 13.4268 10.1783 13.407 10.2708 13.4062H13.6792C13.8989 13.4062 14.0928 13.5164 14.2181 13.684C14.2282 13.5999 14.2214 13.5146 14.1982 13.4332L13.8907 12.3243ZM2.10895 10.7703L1.76882 10.609C1.67695 10.5652 1.60045 10.6173 1.60157 10.7264L1.6057 11.1937C1.60682 11.3024 1.68332 11.4269 1.77557 11.4708L2.1157 11.6324C2.20795 11.6767 2.28407 11.6245 2.28295 11.515L2.27882 11.0474C2.27882 10.939 2.2012 10.8142 2.10895 10.7703ZM7.8967 12.0618L7.53857 12.0427C7.43995 12.0374 7.36232 12.094 7.36532 12.1679L7.39082 12.7072C7.3942 12.7814 7.47707 12.8467 7.57607 12.8515L7.93457 12.8714C8.03282 12.8767 8.11082 12.82 8.10782 12.7458L8.08232 12.2069C8.07895 12.1327 7.99532 12.0674 7.8967 12.0618ZM4.83145 11.6185L4.4797 11.5548C4.38257 11.5368 4.30532 11.5848 4.30795 11.6605L4.32595 12.211C4.32857 12.2868 4.40957 12.3629 4.50595 12.3809L4.85845 12.4447C4.95557 12.4627 5.03245 12.4147 5.0302 12.3389L5.0122 11.7884C5.00957 11.7127 4.92857 11.6365 4.83145 11.6185ZM21.7237 11.689L22.0638 11.5278C22.1557 11.4839 22.2322 11.3594 22.2333 11.251L22.2374 10.783C22.2389 10.6747 22.1624 10.6218 22.0706 10.6657L21.7301 10.8262C21.6374 10.87 21.5598 10.9953 21.5598 11.1037L21.5553 11.572C21.5549 11.6804 21.6311 11.7337 21.7237 11.689ZM15.9041 12.9277L16.2622 12.9078C16.3612 12.9025 16.4448 12.8373 16.4478 12.7634L16.4733 12.2242C16.4767 12.1503 16.3987 12.0937 16.3001 12.0993L15.9416 12.1188C15.8429 12.124 15.7601 12.1885 15.7567 12.2628L15.7312 12.802C15.7282 12.8763 15.8058 12.9325 15.9041 12.9277ZM18.9802 12.5013L19.3327 12.4375C19.4294 12.4192 19.5104 12.343 19.5127 12.2677L19.5307 11.7168C19.5333 11.6414 19.4561 11.5938 19.3593 11.6114L19.0072 11.6755C18.9101 11.6932 18.8287 11.7693 18.8264 11.8454L18.8081 12.3959C18.8062 12.4717 18.8834 12.5189 18.9802 12.5013Z" fill="#FF5C00"/>
</svg>
