<svg width="22" height="22" viewBox="0 0 22 22" fill="none" xmlns="http://www.w3.org/2000/svg">
<path d="M4.32236 4.32217C2.19309 6.45144 1.12101 9.15034 0.579216 11.294L10.2058 20.9187C12.3495 20.3788 15.0484 19.3067 17.1776 17.1755C19.3069 15.0443 20.379 12.3474 20.9208 10.2037L11.2942 0.580948C9.15053 1.12082 6.45163 2.1929 4.32236 4.32217ZM12.8927 7.53455L13.9653 6.46488C14.1093 6.3342 14.2981 6.26394 14.4925 6.26866C14.6869 6.27338 14.8721 6.35271 15.0096 6.49023C15.1471 6.62775 15.2264 6.8129 15.2312 7.00732C15.2359 7.20174 15.1656 7.39052 15.0349 7.53455L13.9653 8.60711L14.5008 9.14314C14.6429 9.28518 14.7227 9.47783 14.7227 9.6787C14.7227 9.87957 14.6429 10.0722 14.5008 10.2143C14.3588 10.3563 14.1661 10.4361 13.9653 10.4361C13.7644 10.4361 13.5717 10.3563 13.4297 10.2143L12.8941 9.6787L11.8211 10.7498L12.3567 11.2854C12.4987 11.4274 12.5785 11.6201 12.5785 11.8209C12.5785 12.0218 12.4987 12.2144 12.3567 12.3565C12.2146 12.4985 12.022 12.5783 11.8211 12.5783C11.6202 12.5783 11.4276 12.4985 11.2856 12.3565L10.75 11.8209L9.67889 12.8925L10.2144 13.4281C10.2848 13.4984 10.3406 13.5819 10.3786 13.6738C10.4167 13.7657 10.4363 13.8642 10.4363 13.9636C10.4363 14.0631 10.4167 14.1616 10.3786 14.2535C10.3406 14.3454 10.2848 14.4289 10.2144 14.4992C10.1441 14.5695 10.0606 14.6253 9.96873 14.6634C9.87684 14.7014 9.77835 14.721 9.67889 14.721C9.57942 14.721 9.48094 14.7014 9.38905 14.6634C9.29715 14.6253 9.21366 14.5695 9.14333 14.4992L8.60729 13.9651L7.53474 15.0347C7.39071 15.1654 7.20193 15.2357 7.00751 15.231C6.81309 15.2263 6.62793 15.1469 6.49042 15.0094C6.3529 14.8719 6.27356 14.6867 6.26884 14.4923C6.26412 14.2979 6.33438 14.1091 6.46506 13.9651L7.53474 12.8925L6.99918 12.3565C6.85714 12.2144 6.77735 12.0218 6.77735 11.8209C6.77735 11.6201 6.85714 11.4274 6.99918 11.2854C7.14122 11.1433 7.33387 11.0635 7.53474 11.0635C7.73561 11.0635 7.92826 11.1433 8.0703 11.2854L8.60585 11.8209L9.67889 10.7498L9.14333 10.2143C9.073 10.1439 9.01721 10.0604 8.97915 9.96854C8.94108 9.87665 8.92149 9.77816 8.92149 9.6787C8.92149 9.57924 8.94108 9.48075 8.97915 9.38886C9.01721 9.29697 9.073 9.21347 9.14333 9.14314C9.21366 9.07281 9.29715 9.01702 9.38905 8.97896C9.48094 8.9409 9.57942 8.92131 9.67889 8.92131C9.77835 8.92131 9.87684 8.9409 9.96873 8.97896C10.0606 9.01702 10.1441 9.07281 10.2144 9.14314L10.75 9.6787L11.8211 8.60711L11.2856 8.07155C11.1435 7.92951 11.0637 7.73686 11.0637 7.53599C11.0637 7.33512 11.1435 7.14247 11.2856 7.00043C11.4276 6.8584 11.6202 6.7786 11.8211 6.7786C12.022 6.7786 12.2146 6.8584 12.3567 7.00043L12.8927 7.53455ZM21.3349 8.04467C21.6857 5.42784 21.5269 2.27352 20.3752 1.12418C19.2234 -0.0251529 16.0715 -0.185916 13.4547 0.164404C13.3342 0.18072 13.207 0.198956 13.0751 0.219591L21.2812 8.42571C21.3004 8.2923 21.3186 8.16513 21.3349 8.04467ZM0.165071 13.455C-0.185729 16.0718 -0.0268851 19.2261 1.12485 20.3754C1.92819 21.1793 3.71194 21.4993 5.6075 21.4993C6.42269 21.498 7.2369 21.443 8.04486 21.3347C8.16531 21.3184 8.29248 21.3002 8.42445 21.2796L0.218339 13.0734C0.199623 13.2073 0.181387 13.3345 0.165071 13.455Z" fill="#FF5C00"/>
</svg>
