<svg width="34" height="34" viewBox="0 0 34 34" fill="none" xmlns="http://www.w3.org/2000/svg">
<path fill-rule="evenodd" clip-rule="evenodd" d="M18.0044 12.7079L16.7396 13.974L15.7664 14.9472C15.6493 15.0654 15.5099 15.1591 15.3563 15.2229C15.2027 15.2868 15.0379 15.3194 14.8716 15.319C14.7053 15.3186 14.5407 15.2852 14.3874 15.2206C14.2341 15.1561 14.0951 15.0617 13.9786 14.943C13.8621 14.8243 13.7703 14.6836 13.7086 14.5291C13.647 14.3746 13.6166 14.2094 13.6193 14.0431C13.622 13.8768 13.6577 13.7127 13.7244 13.5603C13.7911 13.4079 13.8874 13.2703 14.0077 13.1555L16.9003 10.3696C16.947 10.3248 16.9952 10.2825 17.0448 10.2425C17.3616 10.5684 17.6098 10.9546 17.7748 11.3781C17.9398 11.8017 18.0181 12.254 18.0053 12.7084M24.5375 21.8535L23.9595 22.6419C23.6476 23.0667 23.2401 23.4122 22.77 23.6503C22.2998 23.8884 21.7802 24.0125 21.2531 24.0125L20.7801 24.4855C20.2971 24.9687 19.651 25.2537 18.9685 25.2847C18.2861 25.3157 17.6167 25.0904 17.092 24.653L16.5781 24.225L16.2798 24.5233C15.9701 24.833 15.6025 25.0786 15.198 25.2462C14.7934 25.4138 14.3598 25.5 13.9219 25.5C13.484 25.5 13.0504 25.4138 12.6458 25.2462C12.2412 25.0786 11.8736 24.833 11.564 24.5233L8.36373 21.3231C8.20585 21.1652 8.01841 21.0399 7.81211 20.9544C7.60582 20.869 7.3847 20.825 7.1614 20.825H1.70312V11.475H6.9489C7.1722 11.475 7.39332 11.431 7.59961 11.3456C7.80591 11.2601 7.99335 11.1348 8.15123 10.9769L9.63235 9.49578C9.94808 9.18006 10.3229 8.92962 10.7354 8.75877C11.1479 8.58791 11.5901 8.49998 12.0366 8.5H13.8947C14.2674 8.5 14.6338 8.5612 14.9801 8.67808L12.2389 11.3182C11.87 11.6652 11.5741 12.0824 11.3685 12.5453C11.163 13.0082 11.0519 13.5075 11.0418 14.0138C11.0317 14.5202 11.1227 15.0235 11.3097 15.4942C11.4966 15.965 11.7756 16.3936 12.1303 16.7551C12.4851 17.1166 12.9084 17.4037 13.3755 17.5995C13.8426 17.7952 14.3441 17.8958 14.8506 17.8953C15.3571 17.8947 15.8583 17.7931 16.325 17.5963C16.7917 17.3995 17.2144 17.1115 17.5684 16.7493L17.746 16.572L24.5078 21.831L24.5362 21.8526" fill="#FF5C00"/>
<path d="M27.0544 11.475H32.3002V20.825H25.2877L17.6377 14.875L16.6644 15.8482C16.4284 16.0865 16.1475 16.2755 15.8378 16.4043C15.5282 16.533 15.196 16.5989 14.8607 16.5982C14.5254 16.5974 14.1935 16.53 13.8844 16.3999C13.5754 16.2697 13.2953 16.0795 13.0604 15.8401C12.8255 15.6008 12.6405 15.3172 12.5162 15.0057C12.3919 14.6943 12.3307 14.3612 12.3363 14.0259C12.3418 13.6906 12.4139 13.3598 12.5485 13.0526C12.683 12.7454 12.8772 12.468 13.1199 12.2366L16.0125 9.45072C16.6461 8.84063 17.4916 8.49985 18.3712 8.5H21.9667C22.4132 8.49998 22.8553 8.58791 23.2679 8.75877C23.6804 8.92962 24.0552 9.18006 24.3709 9.49578L25.8521 10.9769C26.0099 11.1348 26.1974 11.2601 26.4037 11.3456C26.61 11.431 26.8311 11.475 27.0544 11.475Z" fill="#FF5C00"/>
</svg>
