<svg width="34" height="34" viewBox="0 0 34 34" fill="none" xmlns="http://www.w3.org/2000/svg">
<path d="M15.1407 25.4999C16.1678 21.7812 19.759 19.1249 23.8957 19.5641C27.834 19.982 30.9649 23.3041 31.1632 27.2566C31.2128 28.2978 31.0711 29.2966 30.7665 30.2245C30.5824 30.7912 30.0299 31.1666 29.4278 31.1666H8.33219C4.75653 31.1666 2.07478 27.8948 2.77603 24.3885L7.08694 2.83325H15.5869L18.4203 7.79159L12.3499 12.1337L10.6286 9.91659" fill="#FF5C00"/>
<path d="M15.1407 25.4999C16.1678 21.7812 19.759 19.1249 23.8957 19.5641C27.834 19.982 30.9649 23.3041 31.1632 27.2566C31.2128 28.2978 31.0711 29.2966 30.7665 30.2245C30.5824 30.7912 30.0299 31.1666 29.4278 31.1666H8.33219C4.75653 31.1666 2.07478 27.8948 2.77603 24.3885L7.08694 2.83325H15.5869L18.4203 7.79159L12.3499 12.1337L10.6286 9.91659M12.3569 12.1337L15.5869 24.0833" stroke="#FF5C00" stroke-width="2" stroke-miterlimit="2" stroke-linecap="round" stroke-linejoin="round"/>
</svg>
