<svg width="34" height="34" viewBox="0 0 34 34" fill="none" xmlns="http://www.w3.org/2000/svg">
<path d="M15.1705 13.1628C13.739 13.8466 12.75 15.3077 12.75 17C12.75 19.3472 14.6528 21.25 17 21.25C18.6922 21.25 20.1534 20.261 20.8372 18.8295" stroke="#FF5C00" stroke-width="2" stroke-linecap="round" stroke-linejoin="round"/>
<path d="M20.0364 8.302C19.0871 7.97128 18.0671 7.7915 17.0052 7.7915C11.9196 7.7915 7.79688 11.9142 7.79688 16.9998C7.79688 22.0855 11.9196 26.2082 17.0052 26.2082C22.0908 26.2082 26.2135 22.0855 26.2135 16.9998C26.2135 15.9379 26.0338 14.9179 25.703 13.9687" stroke="#FF5C00" stroke-width="2" stroke-linecap="round" stroke-linejoin="round"/>
<path d="M23.7796 4.55631C21.7665 3.45765 19.4575 2.83325 17.0026 2.83325C9.17857 2.83325 2.83594 9.17588 2.83594 16.9999C2.83594 24.824 9.17857 31.1666 17.0026 31.1666C24.8266 31.1666 31.1693 24.824 31.1693 16.9999C31.1693 14.545 30.5449 12.236 29.4463 10.2229" stroke="#FF5C00" stroke-width="2" stroke-linecap="round" stroke-linejoin="round"/>
<path d="M31.1667 2.83325L17 16.9999" stroke="#FF5C00" stroke-width="2" stroke-linecap="round" stroke-linejoin="round"/>
</svg>
